<svg width="64" height="64" viewBox="0 0 64 64" role="img" aria-labelledby="t d" xmlns="http://www.w3.org/2000/svg">
  <title id="t">vsceasy octopus mark</title>
  <desc id="d">A friendly coral octopus, the vsceasy mascot.</desc>

  <path d="M16 40 q-9 4 -10 13" fill="none" stroke="#F0997B" stroke-width="5.5" stroke-linecap="round"/>
  <path d="M21 45 q-6 8 -3 15" fill="none" stroke="#F0997B" stroke-width="5.5" stroke-linecap="round"/>
  <path d="M27 47 q-2 9 -6 14" fill="none" stroke="#F0997B" stroke-width="5.5" stroke-linecap="round"/>
  <path d="M37 47 q2 9 6 14" fill="none" stroke="#F0997B" stroke-width="5.5" stroke-linecap="round"/>
  <path d="M43 45 q6 8 3 15" fill="none" stroke="#F0997B" stroke-width="5.5" stroke-linecap="round"/>
  <path d="M48 40 q9 4 10 13" fill="none" stroke="#F0997B" stroke-width="5.5" stroke-linecap="round"/>

  <ellipse cx="32" cy="29" rx="20" ry="19" fill="#F0997B" stroke="#D85A30" stroke-width="2.4"/>

  <circle cx="25" cy="26" r="5.6" fill="#ffffff"/>
  <circle cx="39" cy="26" r="5.6" fill="#ffffff"/>
  <circle cx="26.5" cy="27.2" r="2.7" fill="#26211C"/>
  <circle cx="40.5" cy="27.2" r="2.7" fill="#26211C"/>
  <circle cx="27.6" cy="26.2" r="0.9" fill="#ffffff"/>
  <circle cx="41.6" cy="26.2" r="0.9" fill="#ffffff"/>
  <path d="M28 35 q4 3.5 8 0" fill="none" stroke="#D85A30" stroke-width="2.2" stroke-linecap="round"/>
  <ellipse cx="17.5" cy="32" rx="3.4" ry="2.2" fill="#F5C4B3"/>
  <ellipse cx="46.5" cy="32" rx="3.4" ry="2.2" fill="#F5C4B3"/>
</svg>
